<?xml version="1.0" ?><!DOCTYPE svg  PUBLIC '-//W3C//DTD SVG 1.1//EN'  'http://www.w3.org/Graphics/SVG/1.1/DTD/svg11.dtd'><svg enable-background="new 0 0 512 512" height="512px" id="Layer_1" version="1.1" viewBox="0 0 512 512" width="512px" xml:space="preserve" xmlns="http://www.w3.org/2000/svg" xmlns:xlink="http://www.w3.org/1999/xlink"><linearGradient gradientTransform="matrix(1 0 0 -1 -41.66 349.04)" gradientUnits="userSpaceOnUse" id="SVGID_1_" x1="175.8874" x2="434.8801" y1="222.508" y2="-36.4846"><stop offset="0" style="stop-color:#11A4DC"/><stop offset="0.5051" style="stop-color:#0F94C9"/><stop offset="1" style="stop-color:#0C82B4"/></linearGradient><path d="M402.671,134.486c-12.31,7.305-25.937,12.606-40.452,15.467  c-11.616-12.379-28.174-20.119-46.497-20.119c-35.177,0-63.697,28.521-63.697,63.704c0,4.986,0.561,9.845,1.651,14.516  c-52.945-2.66-99.889-28.016-131.309-66.559c-5.483,9.404-8.622,20.346-8.622,32.031c0,22.098,11.244,41.599,28.338,53.02  c-10.438-0.334-20.264-3.202-28.855-7.973c-0.006,0.265-0.006,0.536-0.006,0.807c0,30.859,21.959,56.6,51.104,62.462  c-5.345,1.45-10.973,2.231-16.785,2.231c-4.109,0-8.099-0.397-11.988-1.147c8.112,25.306,31.634,43.73,59.506,44.24  c-21.802,17.087-49.264,27.273-79.114,27.273c-5.137,0-10.211-0.303-15.196-0.895c28.199,18.083,61.68,28.622,97.651,28.622  c117.178,0,181.247-97.065,181.247-181.247c0-2.761-0.057-5.515-0.176-8.25c12.442-8.963,23.245-20.188,31.779-32.964  c-11.415,5.074-23.699,8.496-36.588,10.028C387.822,161.853,397.913,149.374,402.671,134.486z" fill="url(#SVGID_1_)"/></svg>